<svg width="66" height="66" viewBox="0 0 66 66" fill="none" xmlns="http://www.w3.org/2000/svg">
<path d="M32.9993 65.9986C51.2243 65.9986 65.9986 51.2243 65.9986 32.9993C65.9986 14.7743 51.2243 0 32.9993 0C14.7743 0 0 14.7743 0 32.9993C0 51.2243 14.7743 65.9986 32.9993 65.9986Z" fill="#371D1E"/>
<path d="M36.1266 39.0829L33.3675 41.0418L24.5621 28.6386L27.3211 26.6797C28.073 26.1459 28.3185 25.1416 27.9005 24.3208L24.02 16.7183C23.5054 15.7098 22.2142 15.3926 21.2899 16.0478C16.0795 19.7477 14.8545 26.9694 18.5543 32.1798L28.044 45.5459C31.7438 50.7564 38.9656 51.9814 44.176 48.2815C45.1003 47.6262 45.2258 46.3033 44.4436 45.4839L38.5448 39.3133C37.9061 38.647 36.877 38.5491 36.1266 39.0829Z" fill="#FAE100"/>
<path d="M48.2167 35.5003C48.145 35.5003 48.0719 35.4934 48.0002 35.4769C47.4415 35.3582 47.0855 34.8078 47.2042 34.2491C47.985 30.5906 47.2952 26.8466 45.2605 23.7069C43.2257 20.5671 40.09 18.4082 36.4316 17.6274C35.8729 17.5087 35.517 16.9583 35.6356 16.3996C35.7542 15.8409 36.3047 15.485 36.8634 15.6036C45.5322 17.4535 51.0792 26.012 49.2279 34.6809C49.1231 35.1679 48.6941 35.5003 48.2167 35.5003Z" fill="#FAE100"/>
<path d="M43.1166 33.8298C43.0449 33.8298 42.9718 33.8229 42.9 33.8064C42.3413 33.6877 41.9854 33.1373 42.104 32.5786C42.9524 28.6015 40.4086 24.674 36.4301 23.8256C35.8714 23.7056 35.5155 23.1565 35.6341 22.5978C35.7528 22.0391 36.3032 21.6832 36.8619 21.8019C41.9551 22.8889 45.2148 27.9172 44.1264 33.0104C44.0243 33.4974 43.5939 33.8298 43.1166 33.8298Z" fill="#FAE100"/>
</svg>
