<svg width="14" height="14" viewBox="0 0 14 14" fill="none" xmlns="http://www.w3.org/2000/svg">
<path d="M6.54435 0.147154L0.32213 4.63656C0.119907 4.7829 0 5.01731 0 5.26661V13.6115C0 13.8258 0.174352 14 0.388889 14H4.68352C4.89806 14 5.07241 13.8258 5.07241 13.6115V8.51533C5.07241 8.30099 5.24676 8.1268 5.4613 8.1268H8.5387C8.75324 8.1268 8.92759 8.30099 8.92759 8.51533V13.6115C8.92759 13.8258 9.10194 14 9.31648 14H13.6111C13.8256 14 14 13.8258 14 13.6115V5.26661C14 5.01731 13.8801 4.7829 13.6779 4.63656L7.45565 0.147154C7.18343 -0.0490512 6.81657 -0.0490512 6.54435 0.147154Z" fill="#3974CC"/>
</svg>
