<svg width="65" height="65" viewBox="0 0 65 65" fill="none" xmlns="http://www.w3.org/2000/svg">
<path d="M65 50.5365C65 58.5255 58.5238 65 50.5379 65H14.4621C6.47616 65 0 58.5255 0 50.5365V14.4635C0 6.47454 6.47616 0 14.4621 0H50.5379C58.5238 0 65 6.47454 65 14.4635V50.5365Z" fill="#FAE100"/>
<path d="M32.297 12.238C19.3844 12.238 8.91748 20.464 8.91748 30.617C8.91748 37.2232 13.3497 43.013 20.0069 46.2524C19.5168 48.0653 18.2366 52.8279 17.9806 53.8463C17.6627 55.1105 18.4441 55.0929 18.9606 54.7549C19.3623 54.4872 25.3661 50.4269 27.9575 48.6754C29.3657 48.8817 30.8137 48.9915 32.297 48.9915C45.2096 48.9915 55.6765 40.7655 55.6765 30.6126C55.6721 20.464 45.2052 12.238 32.297 12.238Z" fill="#371D1E"/>
<path d="M15.9851 27.2281H18.391C18.391 27.2281 18.4043 33.7992 18.3955 35.3311C18.3999 36.4505 20.8985 36.4636 20.8941 35.3487L20.9029 27.3159C20.9029 27.3159 21.7108 27.3203 23.2956 27.3203C24.7922 27.3203 24.7922 24.9807 23.2956 24.9807C21.6093 24.9807 15.9763 24.9324 15.9763 24.9324C14.568 24.9368 14.5725 27.2281 15.9851 27.2281Z" fill="#FAE100"/>
<mask id="mask0_6_640" style="mask-type:luminance" maskUnits="userSpaceOnUse" x="14" y="24" width="11" height="13">
<path d="M15.9851 27.2281H18.391C18.391 27.2281 18.4043 33.7992 18.3955 35.3311C18.3999 36.4505 20.8985 36.4636 20.8941 35.3487L20.9029 27.3159C20.9029 27.3159 21.7108 27.3203 23.2956 27.3203C24.7922 27.3203 24.7922 24.9807 23.2956 24.9807C21.6093 24.9807 15.9763 24.9324 15.9763 24.9324C14.568 24.9368 14.5725 27.2281 15.9851 27.2281Z" fill="white"/>
</mask>
<g mask="url(#mask0_6_640)">
<path d="M24.792 24.9368H14.5679V36.468H24.792V24.9368Z" fill="#FAE100"/>
</g>
<path d="M27.5026 27.6539L28.8402 31.824H26.0502L27.5026 27.6539ZM26.0017 25.7006C25.4101 26.9955 23.269 33.1189 22.5627 34.743C22.0506 35.915 24.2623 36.8763 24.7744 35.6999L25.2556 34.0275H29.6569C29.6569 34.0275 29.5068 34.0977 30.0895 35.6297C30.5619 36.8719 32.8486 36.0116 32.3763 34.7693C31.7008 32.996 29.3611 26.6048 28.9329 25.7006C28.7387 25.2836 28.0323 24.9807 27.3481 24.9807C26.7874 24.9851 26.2356 25.187 26.0017 25.7006Z" fill="#FAE100"/>
<mask id="mask1_6_640" style="mask-type:luminance" maskUnits="userSpaceOnUse" x="22" y="24" width="11" height="13">
<path d="M27.5026 27.6539L28.8402 31.824H26.0502L27.5026 27.6539ZM26.0017 25.7006C25.4101 26.9955 23.269 33.1189 22.5627 34.743C22.0506 35.915 24.2623 36.8763 24.7744 35.6999L25.2556 34.0275H29.6569C29.6569 34.0275 29.5068 34.0977 30.0895 35.6297C30.5619 36.8719 32.8486 36.0116 32.3763 34.7693C31.7008 32.996 29.3611 26.6048 28.9329 25.7006C28.7387 25.2836 28.0323 24.9807 27.3481 24.9807C26.7874 24.9851 26.2356 25.187 26.0017 25.7006Z" fill="white"/>
</mask>
<g mask="url(#mask1_6_640)">
<path d="M32.8532 24.9851H22.0464V36.8807H32.8532V24.9851Z" fill="#FAE100"/>
</g>
<path d="M33.2241 26.0825C33.2286 28.1631 33.2374 34.8703 33.2374 34.8703C33.2374 34.8703 33.0431 36.2047 34.1953 36.2047C35.3431 36.2047 37.8947 36.1915 39.0249 36.1915C40.155 36.1915 40.1506 33.7993 39.0205 33.7993C37.8903 33.7993 35.8243 33.7861 35.8243 33.7861C35.8243 33.7861 35.8331 27.5837 35.8287 26.0737C35.8287 25.345 35.1754 24.9807 34.5264 24.9807C33.8731 24.9851 33.2197 25.3538 33.2241 26.0825Z" fill="#FAE100"/>
<mask id="mask2_6_640" style="mask-type:luminance" maskUnits="userSpaceOnUse" x="33" y="24" width="7" height="13">
<path d="M33.2241 26.0825C33.2286 28.1631 33.2374 34.8703 33.2374 34.8703C33.2374 34.8703 33.0431 36.2047 34.1953 36.2047C35.3431 36.2047 37.8947 36.1915 39.0249 36.1915C40.155 36.1915 40.1506 33.7993 39.0205 33.7993C37.8903 33.7993 35.8243 33.7861 35.8243 33.7861C35.8243 33.7861 35.8331 27.5837 35.8287 26.0737C35.8287 25.345 35.1754 24.9807 34.5264 24.9807C33.8731 24.9851 33.2197 25.3538 33.2241 26.0825Z" fill="white"/>
</mask>
<g mask="url(#mask2_6_640)">
<path d="M40.1548 24.9851H33.043V36.2047H40.1548V24.9851Z" fill="#FAE100"/>
</g>
<path d="M40.4552 25.7533C40.4817 26.6663 40.4243 34.9186 40.4243 35.5287C40.4243 36.4944 42.8965 36.49 42.8965 35.5287C42.8965 34.4094 42.8965 32.2805 42.8965 32.2805L43.6205 31.7011L46.7945 36.0028C47.4346 36.8456 49.4521 35.3224 48.812 34.484L45.4437 30.0726C45.4437 30.0726 47.7304 27.6144 48.631 26.7234C49.1563 26.2054 47.5273 24.5725 47.002 25.0948C46.4943 25.5953 42.9097 29.1639 42.9097 29.1639C42.9097 29.1639 42.9406 26.9253 42.9097 25.6874C42.8965 25.2178 42.3182 24.9895 41.7222 24.9895C41.0909 24.9895 40.442 25.2485 40.4552 25.7533Z" fill="#FAE100"/>
<mask id="mask3_6_640" style="mask-type:luminance" maskUnits="userSpaceOnUse" x="40" y="24" width="9" height="13">
<path d="M40.4552 25.7533C40.4817 26.6663 40.4243 34.9186 40.4243 35.5287C40.4243 36.4944 42.8965 36.49 42.8965 35.5287C42.8965 34.4094 42.8965 32.2805 42.8965 32.2805L43.6205 31.7011L46.7945 36.0028C47.4346 36.8456 49.4521 35.3224 48.812 34.484L45.4437 30.0726C45.4437 30.0726 47.7304 27.6144 48.631 26.7234C49.1563 26.2054 47.5273 24.5725 47.002 25.0948C46.4943 25.5953 42.9097 29.1639 42.9097 29.1639C42.9097 29.1639 42.9406 26.9253 42.9097 25.6874C42.8965 25.2178 42.3182 24.9895 41.7222 24.9895C41.0909 24.9895 40.442 25.2485 40.4552 25.7533Z" fill="white"/>
</mask>
<g mask="url(#mask3_6_640)">
<path d="M49.4521 24.5769H40.4243V36.85H49.4521V24.5769Z" fill="#FAE100"/>
</g>
</svg>
