<svg width="108" height="106" viewBox="0 0 108 106" fill="none" xmlns="http://www.w3.org/2000/svg">
<g clip-path="url(#clip0_6_515)">
<path d="M73.772 105.635C71.4752 105.635 69.5114 104.65 68.1964 102.345L67.8677 101.685L67.2102 102.015C66.8815 102.015 66.8814 102.015 66.5527 102.015L46.5514 93.1277V101.025C46.5514 102.01 45.8939 102.67 44.912 102.67C43.9302 102.67 43.2727 102.01 43.2727 101.025V93.1277L22.9426 102.015C22.6139 102.015 22.6139 102.015 22.2852 102.015C21.6277 102.015 20.9745 101.685 20.6458 101.029C20.317 100.044 20.6458 99.0537 21.6277 98.7238L43.2683 89.1814V70.0965H4.91814C2.29686 70.0922 0 67.7912 0 65.156V9.87238C0 7.24148 2.29686 4.93619 4.91814 4.93619H38.3632V4.27629C38.6919 3.29079 39.0207 2.30095 40.0026 1.31545C40.9845 0.329948 42.2951 0 43.6057 0C44.9164 0 46.227 0.329948 47.2132 1.31545C47.8707 1.97534 48.5239 2.96085 48.8526 4.27629V4.93619H73.1145L74.4252 3.95069C76.0646 2.96519 78.0327 2.30529 80.0008 2.30529C85.5764 2.30529 90.1658 6.91153 90.1658 12.5076C90.1658 15.4685 89.1839 17.7738 87.2158 19.7491L86.2339 20.7346V24.6853L86.8914 24.3553C87.2201 24.3553 87.8733 24.0254 88.202 24.3553L95.7414 26.6606C98.6914 27.6461 100.002 30.2814 100.66 32.9123L107.546 60.2241L107.875 61.5396C108.532 64.8304 106.564 67.1357 103.938 67.7912C101.317 68.4511 98.3627 66.8057 97.3808 63.5149L97.0521 62.1995L92.1339 42.4504V100.369C92.1339 104.32 88.8552 106.291 86.2339 105.965C83.6126 105.965 80.3339 103.99 80.3339 100.369V70.4221H79.6764V100.369C79.3476 103.66 76.3933 105.635 73.772 105.635ZM73.4433 101.685C74.4252 101.685 75.0827 101.355 75.4114 100.699L75.7402 100.039V69.7665C75.7402 69.7665 75.7402 69.7666 75.7402 69.4366C75.7402 68.7767 76.0689 68.1212 76.3976 67.4613C76.7264 66.8014 77.3795 66.1458 78.037 65.8159C78.3658 65.4859 79.0189 65.4859 79.3476 65.4859H80.987C81.3158 65.4859 81.9689 65.8159 82.2977 65.8159C82.9551 66.1458 83.6083 66.8014 83.937 67.4613C84.2658 68.1212 84.2658 68.7767 84.2658 69.4366C84.2658 69.4366 84.2658 69.4366 84.2658 69.7665V100.044L84.5945 100.703C84.9233 101.363 85.5764 101.689 86.5626 101.689C87.5489 101.689 88.5308 101.359 88.5308 100.044V61.8652H71.8039V100.039C71.8039 101.029 72.4614 101.685 73.4433 101.685ZM67.5433 98.3938V70.0922H46.5601V89.177L67.5433 98.3938ZM52.4601 66.4758L51.8026 65.4903C51.8026 65.1603 51.4739 64.8304 51.4739 64.5048V63.8449H3.27876V64.8304C3.27876 65.8159 3.93624 66.4758 4.91814 66.4758H52.4601ZM67.5433 66.4758V63.8449H61.9676L60.9857 65.8202L60.3283 66.4801H67.5433V66.4758ZM56.3964 64.1705C57.0538 64.1705 58.0357 63.8405 58.3645 62.5251L59.0219 60.2198L64.5976 38.1697C64.5976 37.8398 64.5976 37.8398 64.9263 37.5098C65.2551 36.8499 65.5838 36.5243 66.2369 36.1944C67.8763 34.8789 70.4976 35.2089 71.4838 37.5098C71.8126 37.8398 71.8126 38.4953 71.8126 38.8253V40.1407V57.5802H88.5351V40.1494V38.834C88.5351 38.504 88.8638 37.8485 88.8638 37.5185C89.8457 35.5432 92.4713 34.8876 94.1107 36.2031C94.7682 36.533 95.0926 37.1886 95.4213 37.5185C95.4213 37.8485 95.7501 37.8485 95.7501 38.1784L101.326 60.5541C101.326 60.5541 101.326 60.5541 101.326 60.884C101.654 63.1893 102.965 63.1893 103.294 63.1893C103.623 63.1893 104.604 62.5294 103.951 60.884C103.951 60.884 103.951 60.884 103.951 60.5541L96.7363 33.2422C96.4076 31.2669 95.4257 30.2814 94.4394 29.9514L88.2107 27.9761L87.2288 28.9616C82.9681 32.9123 76.735 32.9123 72.8031 28.9616L71.8039 27.9717L65.2464 29.9471C64.2645 30.277 63.607 31.2625 62.9495 33.2379L56.0633 60.2241L55.4058 62.855C55.4101 64.1705 55.7389 64.1705 56.3964 64.1705ZM52.1314 60.5497L52.4601 59.2343L53.7707 53.9681H53.1133C52.4558 53.6382 52.1314 52.9826 52.1314 52.3227V38.8296C52.1314 37.8441 52.7888 37.1842 53.7707 37.1842C54.7526 37.1842 55.4101 37.8441 55.4101 38.8296V47.0566L59.3464 32.248C59.6751 30.2727 60.657 28.2973 62.2964 26.9819L62.6251 26.652V25.0066C62.6251 24.0211 63.2826 23.3612 64.2645 23.3612C65.2464 23.3612 65.9039 24.0211 65.9039 25.0066V25.3365L72.1327 23.3612H73.1145V22.7056C73.1145 21.7201 73.772 21.0602 74.7539 21.0602C75.7358 21.0602 76.3933 21.7201 76.3933 22.7056V26.6563L76.722 26.9862C78.0327 27.9717 79.6721 27.9717 81.3114 27.6461L82.2933 27.3162V21.7201L81.6359 22.0501C80.9784 22.0501 80.3252 22.38 79.6677 22.38C75.4071 22.38 71.7996 19.7491 70.489 16.1284L69.8315 14.153H2.95002V60.5541H52.1314V60.5497ZM67.5433 60.5497V59.8898V42.1204L66.2326 48.0421V52.3184C66.2326 52.9783 65.9039 53.6339 65.2507 53.9638H64.922L63.2826 60.5454H67.5433V60.5497ZM22.2938 53.9681C21.3119 53.9681 20.6544 53.3082 20.6544 52.3227V42.7803C20.6544 41.7948 21.3119 41.1349 22.2938 41.1349C23.2757 41.1349 23.9332 41.7948 23.9332 42.7803V52.3227C23.9332 53.3126 22.9513 53.9681 22.2938 53.9681ZM32.7876 53.9681C31.8057 53.9681 31.1482 53.3082 31.1482 52.3227V39.1596C31.1482 38.1741 31.8057 37.5142 32.7876 37.5142C33.7695 37.5142 34.4269 38.1741 34.4269 39.1596V52.3227C34.4269 53.3126 33.7695 53.9681 32.7876 53.9681ZM43.2813 53.9681C42.2994 53.9681 41.6419 53.3082 41.6419 52.3227V34.8833C41.6419 33.8978 42.2994 33.2379 43.2813 33.2379C44.2632 33.2379 44.9207 33.8978 44.9207 34.8833V52.3227C44.9207 53.3126 44.2632 53.9681 43.2813 53.9681ZM11.4756 53.9681C10.4938 53.9681 9.83627 53.3082 9.83627 52.3227V36.8586C9.83627 35.8731 10.4938 35.2132 11.4756 35.2132C12.4575 35.2132 13.115 35.8731 13.115 36.8586V52.3271C13.4438 53.3126 12.4575 53.9681 11.4756 53.9681ZM80.3295 18.0994C83.6083 18.0994 86.5583 15.4685 86.5583 11.8477C86.5583 8.55693 83.937 5.59609 80.3295 5.59609C77.0508 5.59609 74.1008 8.22698 74.1008 11.8477C74.1008 15.1385 77.0508 18.0994 80.3295 18.0994ZM70.1645 10.5323V9.87238C70.1645 9.21248 70.4933 8.55693 70.822 7.89704H4.91814C4.26065 7.89704 3.27876 8.55693 3.27876 9.54243V10.5279H70.1645V10.5323ZM45.5739 4.60624V4.27629C45.2451 3.29079 44.592 3.29079 43.9345 3.29079C43.277 3.29079 42.6238 3.62074 42.2951 4.27629V4.60624H45.5739Z" fill="white"/>
</g>
<defs>
<clipPath id="clip0_6_515">
<rect width="108" height="106" fill="white"/>
</clipPath>
</defs>
</svg>
