<svg width="25" height="22" viewBox="0 0 25 22" fill="none" xmlns="http://www.w3.org/2000/svg">
<g clip-path="url(#clip0_6_610)">
<path d="M23.4747 1.67944H6.32805V17.0252C6.32805 18.288 5.32227 19.3144 4.08501 19.3144H0.807483C0.778772 19.3144 0.750958 19.3135 0.723145 19.3126V20.4444C0.723145 21.3042 1.40593 22.001 2.24841 22.001H23.4747C24.3172 22.001 25 21.3042 25 20.4444V3.23609C25 2.37627 24.3172 1.67944 23.4747 1.67944ZM9.50329 4.69201H21.2263V8.10656H9.50329V4.69201ZM11.173 17.0509H9.5338C9.13723 17.0509 8.81602 16.7231 8.81602 16.3183C8.81602 15.9136 9.13723 15.5858 9.5338 15.5858H11.173C11.5696 15.5858 11.8908 15.9136 11.8908 16.3183C11.8908 16.7231 11.5696 17.0509 11.173 17.0509ZM11.173 12.9587H9.5338C9.13723 12.9587 8.81602 12.6309 8.81602 12.2262C8.81602 11.8215 9.13723 11.4936 9.5338 11.4936H11.173C11.5696 11.4936 11.8908 11.8215 11.8908 12.2262C11.8908 12.6309 11.5696 12.9587 11.173 12.9587ZM16.1849 17.0509H14.5456C14.1491 17.0509 13.8279 16.7231 13.8279 16.3183C13.8279 15.9136 14.1491 15.5858 14.5456 15.5858H16.1849C16.5814 15.5858 16.9026 15.9136 16.9026 16.3183C16.9026 16.7231 16.5814 17.0509 16.1849 17.0509ZM16.1849 12.9587H14.5456C14.1491 12.9587 13.8279 12.6309 13.8279 12.2262C13.8279 11.8215 14.1491 11.4936 14.5456 11.4936H16.1849C16.5814 11.4936 16.9026 11.8215 16.9026 12.2262C16.9026 12.6309 16.5814 12.9587 16.1849 12.9587ZM21.1967 17.0509H19.5575C19.1609 17.0509 18.8397 16.7231 18.8397 16.3183C18.8397 15.9136 19.1609 15.5858 19.5575 15.5858H21.1967C21.5933 15.5858 21.9145 15.9136 21.9145 16.3183C21.9145 16.7231 21.5924 17.0509 21.1967 17.0509ZM21.1967 12.9587H19.5575C19.1609 12.9587 18.8397 12.6309 18.8397 12.2262C18.8397 11.8215 19.1609 11.4936 19.5575 11.4936H21.1967C21.5933 11.4936 21.9145 11.8215 21.9145 12.2262C21.9145 12.6309 21.5924 12.9587 21.1967 12.9587Z" fill="white"/>
<path d="M4.08502 17.8492C4.53004 17.8492 4.89251 17.4793 4.89251 17.0251V0.824107C4.89251 0.369933 4.53004 0 4.08502 0H0.807493C0.362475 0 0 0.369933 0 0.824107V17.0251C0 17.4793 0.362475 17.8492 0.807493 17.8492H4.08502Z" fill="white"/>
</g>
<defs>
<clipPath id="clip0_6_610">
<rect width="25" height="22" fill="white"/>
</clipPath>
</defs>
</svg>
