<svg width="86" height="112" viewBox="0 0 86 112" fill="none" xmlns="http://www.w3.org/2000/svg">
<g clip-path="url(#clip0_6_507)">
<path d="M10.9855 111.621C4.923 111.621 0 107.458 0 101.403V20.4313C0 14.7556 5.30284 10.2131 10.9855 10.2131H29.9278V9.45438C30.3077 7.18314 31.4422 4.91189 33.3364 3.39938C35.6105 1.13313 38.6443 0 42.4327 0C48.8751 0 54.9326 4.16312 56.0722 10.2181V10.5975H75.0145C80.6972 10.5975 86 14.7606 86 20.8156V101.782C86 107.458 80.6972 112 75.0145 112H10.9855V111.621ZM74.6346 106.704C78.4231 106.704 81.077 104.053 81.077 101.408V20.4313C81.077 17.7806 78.4231 15.135 74.6346 15.135H60.6153V18.9188H68.1922C73.1152 18.9188 77.6634 22.7025 77.6634 27.6194V93.835C77.6634 98.7519 73.4951 102.536 68.1922 102.536H17.4279C12.5049 102.536 7.95676 98.7519 7.95676 93.835V27.6194C7.95676 22.7025 12.1251 18.9188 17.4279 18.9188H25.3847V15.135H10.9905C7.20207 15.135 4.54815 17.7856 4.54815 20.4313V101.403C4.54815 104.053 7.20207 106.699 10.9905 106.699H74.6346V106.704ZM67.8124 97.6188C70.4663 97.6188 72.3605 95.7269 72.3605 93.4556V27.245C72.3605 25.3531 70.4663 23.0819 67.8124 23.0819H60.2355V23.4612C60.2355 25.7325 58.7211 27.6244 56.447 27.6244H29.1731C26.8991 27.6244 25.3847 25.7325 25.3847 23.4612V23.0819H17.4279C14.774 23.0819 12.8798 24.9738 12.8798 27.245V93.4606C12.8798 95.3525 14.774 97.6238 17.4279 97.6238H67.8124V97.6188ZM25.3847 85.1344C25.0048 85.1344 24.2501 84.755 23.8703 84.3756L19.702 80.5919C18.9423 79.8331 18.5674 78.3206 19.702 77.1875C20.4617 76.4288 21.9761 76.0544 23.1106 77.1875L25.3847 79.4587L30.3077 73.7831C31.0674 72.65 32.5817 72.65 33.7163 73.4038C34.8508 74.1625 34.8508 75.675 34.0961 76.8081L27.6537 84.755C26.8991 84.755 26.5192 85.1344 25.3847 85.1344ZM41.2932 80.9713C40.1587 80.9713 39.0191 79.8381 39.0191 78.7C39.0191 77.5619 40.1537 76.4288 41.2932 76.4288H61.7499C62.8844 76.4288 64.0239 77.5619 64.0239 78.7C64.0239 79.8381 62.8894 80.9713 61.7499 80.9713H41.2932ZM25.3847 65.0825C25.0048 65.0825 24.2501 64.7031 23.8703 64.3238L19.702 60.54C18.9423 59.7813 18.5674 58.2688 19.702 57.1356C20.4617 56.3769 21.9761 56.0025 23.1106 57.1356L25.3847 59.4069L30.3077 53.7313C31.0674 52.5981 32.5817 52.5981 33.7163 53.3519C34.8508 54.1106 34.8508 55.6231 34.0961 56.7563L27.6537 64.7031C26.8991 64.7031 26.5192 65.0825 25.3847 65.0825ZM41.2932 60.9194C40.1587 60.9194 39.0191 59.7862 39.0191 58.6481C39.0191 57.515 40.1537 56.3769 41.2932 56.3769H61.7499C62.8844 56.3769 64.0239 57.51 64.0239 58.6481C64.0239 59.7813 62.8894 60.9194 61.7499 60.9194H41.2932ZM25.7595 46.5381C24.9998 46.5381 24.625 46.5381 23.8653 45.7794L19.697 41.9956C18.9373 41.2369 18.5624 39.7244 19.697 38.5913C20.4567 37.8325 21.9711 37.4581 23.1056 38.5913L25.3797 40.8625L30.3027 35.1869C31.0624 34.0537 32.5767 34.0538 33.7113 34.8075C34.8458 35.5663 34.8458 37.0788 34.0911 38.2119L27.6537 46.1637C26.8991 46.1637 26.5192 46.5381 25.7595 46.5381ZM41.2932 42.7544C40.1587 42.7544 39.0191 41.6213 39.0191 40.4831C39.0191 39.35 40.1537 38.2119 41.2932 38.2119H61.7499C62.8844 38.2119 64.0239 39.345 64.0239 40.4831C64.0239 41.6163 62.8894 42.7544 61.7499 42.7544H41.2932ZM55.6923 22.7025V15.135H29.9278V22.7025H55.6923ZM50.7643 10.2181L50.3845 9.45938C49.25 6.43437 45.8363 4.5425 42.0479 4.5425C39.7738 4.5425 37.4997 5.67563 36.3652 6.81375C35.9854 7.19312 35.2307 7.94687 35.2307 8.32625L34.471 9.83875L50.7643 10.2181Z" fill="white"/>
</g>
<defs>
<clipPath id="clip0_6_507">
<rect width="86" height="112" fill="white"/>
</clipPath>
</defs>
</svg>
