<svg width="107" height="107" viewBox="0 0 107 107" fill="none" xmlns="http://www.w3.org/2000/svg">
<path d="M26.2077 106.995C25.663 106.995 25.1183 106.781 24.6904 106.372C23.8539 105.536 23.8539 104.174 24.6904 103.338L29.2229 98.8054L8.19447 77.7769L3.66198 82.3094C2.82551 83.1459 1.46382 83.1459 0.627351 82.3094C-0.209117 81.473 -0.209117 80.1113 0.627351 79.2943L6.67715 73.2445C7.08566 72.836 7.63034 72.622 8.19447 72.622C8.7586 72.622 9.30327 72.8554 9.71178 73.2445L33.7748 97.3075C34.6113 98.144 34.6113 99.5057 33.7748 100.323L27.725 106.372C27.2971 106.781 26.7524 106.995 26.2077 106.995Z" fill="white"/>
<path d="M29.1845 97.8716C28.6203 97.8716 28.0757 97.6576 27.6672 97.2491L9.79009 79.3721C9.32323 78.9052 9.10925 78.2633 9.16761 77.6213C9.22596 77.0572 10.7238 63.771 12.3384 59.3552C12.5913 58.6549 13.1749 57.371 15.2952 54.1808C15.9566 53.1887 17.2794 52.9358 18.2715 53.5777C19.2636 54.2391 19.5165 55.5619 18.8745 56.554C17.046 59.2968 16.5207 60.4057 16.3651 60.8336C15.2758 63.8293 14.0502 72.7776 13.5445 77.0766L29.5735 93.1057C31.5577 92.0358 35.4093 89.9544 39.1637 87.7757C40.1947 87.1726 41.4981 87.5422 42.0816 88.5538C42.6652 89.5848 42.3345 90.8881 41.3035 91.4717C35.8568 94.6425 30.2155 97.5993 30.1571 97.6187C29.8653 97.7938 29.5152 97.8716 29.1845 97.8716Z" fill="white"/>
<path d="M8.19447 34.3973C7.64979 34.3973 7.10511 34.1833 6.67715 33.7748L0.627351 27.725C-0.209117 26.8885 -0.209117 25.5269 0.627351 24.6904C1.46382 23.8539 2.82551 23.8539 3.66198 24.6904L8.19447 29.2229L29.2229 8.19447L24.6904 3.66198C23.8539 2.82551 23.8539 1.46382 24.6904 0.627351C25.5269 -0.209117 26.8885 -0.209117 27.725 0.627351L33.7748 6.67715C34.6113 7.51362 34.6113 8.87531 33.7748 9.71178L9.71178 33.7748C9.28382 34.1833 8.73914 34.3973 8.19447 34.3973Z" fill="white"/>
<path d="M23.8348 52.216C23.2318 52.216 22.6288 51.9631 22.2008 51.4574C21.7534 50.9321 21.3643 50.4458 21.0531 50.0373C16.9875 44.6489 9.67324 30.7791 9.38145 30.1761C8.95349 29.3396 9.10911 28.3281 9.77051 27.6667L27.6476 9.7896C28.1144 9.32273 28.7564 9.10875 29.3983 9.16711C29.9624 9.22547 43.2487 10.7233 47.6644 12.3379C52.4693 14.0887 70.6187 28.97 72.6807 30.6624C73.5949 31.421 73.7311 32.7633 72.9724 33.6776C72.2138 34.5918 70.8715 34.728 69.9573 33.9693C62.4096 27.7639 49.2985 17.4929 46.2055 16.3646C43.2098 15.2753 34.2615 14.0497 29.9624 13.544L13.8945 29.573C15.8787 33.2691 21.3254 43.3067 24.4573 47.4501C24.7297 47.8197 25.0798 48.2282 25.4689 48.6951C26.2275 49.5899 26.1108 50.9516 25.216 51.7102C24.8269 52.0604 24.3212 52.216 23.8348 52.216Z" fill="white"/>
<path d="M80.7921 106.995C80.2474 106.995 79.7028 106.781 79.2748 106.372L73.225 100.323C72.3885 99.4862 72.3885 98.1245 73.225 97.3075L97.288 73.2444C98.0856 72.4469 99.5057 72.4469 100.323 73.2444L106.372 79.2942C107.209 80.1307 107.209 81.4924 106.372 82.3094C105.536 83.1459 104.174 83.1459 103.338 82.3094L98.8054 77.7769L77.7769 98.8053L82.3094 103.338C83.1459 104.174 83.1459 105.536 82.3094 106.372C81.8815 106.781 81.3368 106.995 80.7921 106.995Z" fill="white"/>
<path d="M77.8545 97.8327C77.7767 97.8327 77.6989 97.8327 77.6211 97.8132C77.057 97.7549 63.7708 96.257 59.355 94.6424C54.5696 92.8917 36.1479 78.3605 34.0664 76.7264C33.1521 76.0067 32.9771 74.6645 33.6968 73.7307C36.8676 69.6262 41.2834 69.4122 45.8159 70.8712L31.8877 56.943C30.6622 55.7175 30.0008 54.0835 30.0397 52.3327C30.0592 50.6014 30.7595 48.9868 31.985 47.7613C32.6269 47.1194 33.3661 46.6331 34.1442 46.3218C32.7242 43.8513 33.0938 40.5833 35.2336 38.4435C36.4591 37.2179 38.0931 36.5176 39.805 36.4982C40.9916 36.4593 42.1199 36.7705 43.1119 37.3541C43.4426 36.5565 43.929 35.8173 44.5515 35.1949C47.1192 32.6465 51.2237 32.6076 53.7331 35.0976L56.9039 38.2684C57.1957 37.7432 57.5459 37.2374 58.0127 36.79C59.2577 35.545 60.8723 34.9031 62.5841 35.0003C64.1404 35.0976 65.6771 35.7979 66.8832 37.004C67.4862 37.5875 82.0174 51.788 85.9274 56.9819C89.993 62.3703 97.3073 76.2401 97.5991 76.8237C98.027 77.6602 97.8714 78.6717 97.21 79.3331L79.3329 97.2102C78.9633 97.6187 78.4187 97.8327 77.8545 97.8327ZM38.6962 74.9368C46.4773 81.0255 57.9544 89.5847 60.8139 90.6352C63.8097 91.7245 72.7579 92.95 77.057 93.4558L93.086 77.4267C91.1018 73.7307 85.6551 63.6931 82.5232 59.5497C78.7883 54.6087 64.0236 40.1942 63.8875 40.0386C63.4012 39.5523 62.8759 39.2994 62.3507 39.2605C61.8838 39.2216 61.4364 39.4161 61.0474 39.8052C59.8802 40.9723 60.9501 42.2173 61.3197 42.5674L74.995 56.2427C75.8315 57.0792 75.8315 58.4409 74.995 59.2579C74.1585 60.0944 72.8163 60.0944 71.9604 59.2579L50.7374 38.1322C50.3289 37.7237 49.8037 37.5097 49.2201 37.5292C48.6171 37.5292 48.0335 37.7821 47.6055 38.2295C47.1581 38.6769 46.9247 39.241 46.9052 39.8441C46.9052 40.4276 47.1192 40.9723 47.5083 41.3614L67.1555 61.0086C67.992 61.8451 67.992 63.2068 67.1555 64.0238C66.3191 64.8603 64.9768 64.8603 64.1209 64.0238L41.4001 41.3808C40.9916 40.9723 40.5247 40.7778 39.8828 40.7778C39.2798 40.7778 38.7156 41.0307 38.2682 41.4781C37.3734 42.3729 37.3345 43.7735 38.171 44.61L60.8528 67.2919C61.6893 68.1283 61.6893 69.49 60.8528 70.307C60.0164 71.1435 58.6741 71.1435 57.8377 70.307L38.1515 50.7181C37.315 49.8817 35.895 49.9206 35.0196 50.7959C34.1248 51.6908 34.0859 53.0914 34.9223 53.9278L60.3276 79.3331C61.1252 80.1307 61.1641 81.3951 60.4443 82.2316C59.7246 83.0875 58.4602 83.2237 57.5653 82.5623C47.7028 75.4037 42.0615 73.0499 38.6962 74.9368Z" fill="white"/>
<path d="M98.8049 34.3973C98.2602 34.3973 97.7155 34.1833 97.2876 33.7748L73.2245 9.71178C72.3881 8.87531 72.3881 7.51362 73.2245 6.67715L79.2743 0.627351C80.1108 -0.209117 81.4725 -0.209117 82.309 0.627351C83.1454 1.46382 83.1454 2.82551 82.309 3.66198L77.7765 8.19447L98.8049 29.2229L103.337 24.6904C104.174 23.8539 105.536 23.8539 106.372 24.6904C107.208 25.5269 107.208 26.8885 106.372 27.725L100.322 33.7748C99.8942 34.1833 99.3495 34.3973 98.8049 34.3973Z" fill="white"/>
<path d="M89.8958 53.7917C89.4873 53.7917 89.0788 53.675 88.7092 53.4416C87.7171 52.7802 87.4642 51.4574 88.1061 50.4847C89.9347 47.7419 90.4599 46.6331 90.6155 46.2051C91.7049 43.2094 92.9304 34.2612 93.4362 29.9621L77.4266 13.8941C75.384 14.9835 71.4351 17.1233 67.603 19.3604C66.5914 19.9634 65.2686 19.6132 64.685 18.5823C64.082 17.5707 64.4322 16.2479 65.4632 15.6643C70.9877 12.4546 76.7846 9.40056 76.843 9.38111C77.6795 8.95315 78.691 9.10877 79.3524 9.77016L97.2295 27.6472C97.6963 28.1141 97.9103 28.756 97.852 29.398C97.7936 29.9621 96.2957 43.2483 94.6812 47.6641C94.4283 48.3644 93.8447 49.6483 91.7049 52.858C91.2769 53.461 90.5961 53.7917 89.8958 53.7917Z" fill="white"/>
</svg>
