<svg width="91" height="109" viewBox="0 0 91 109" fill="none" xmlns="http://www.w3.org/2000/svg">
<path d="M20.0328 51.2695C24.4978 51.2695 29.0456 51.2695 33.5106 51.2695C36.2392 51.2695 36.2392 47.0207 33.5106 47.0207C29.0456 47.0207 24.4978 47.0207 20.0328 47.0207C17.3869 47.104 17.3869 51.2695 20.0328 51.2695Z" fill="white"/>
<path d="M20.0328 63.0996C24.4978 63.0996 29.0456 63.0996 33.5106 63.0996C36.2392 63.0996 36.2392 58.8508 33.5106 58.8508C29.0456 58.8508 24.4978 58.8508 20.0328 58.8508C17.3869 58.8508 17.3869 63.0996 20.0328 63.0996Z" fill="white"/>
<path d="M20.0328 74.8465C24.4978 74.8465 29.0456 74.8465 33.5106 74.8465C36.2392 74.8465 36.2392 70.6809 33.5106 70.6809C29.0456 70.6809 24.4978 70.6809 20.0328 70.6809C17.3869 70.6809 17.3869 74.8465 20.0328 74.8465Z" fill="white"/>
<path d="M58.9779 82.511C45.6655 82.511 32.2704 82.511 18.958 82.511C16.312 82.511 16.2293 86.7599 18.958 86.7599C32.2704 86.7599 45.6655 86.7599 58.9779 86.7599C61.6238 86.6766 61.6238 82.511 58.9779 82.511Z" fill="white"/>
<path d="M71.4636 53.8522C71.4636 49.2701 68.9003 46.6875 65.5929 44.8546C67.0812 44.1881 68.4042 43.355 69.4791 41.9387C72.0424 38.6896 71.877 34.1909 70.306 30.5252C69.2311 28.0259 65.6756 30.1919 66.6678 32.608C66.3371 31.6915 66.9159 33.3577 66.9986 33.6077C67.1639 34.4408 67.3293 35.1906 67.3293 36.0237C67.1639 39.2728 64.9314 41.0223 62.0374 41.7721C61.2105 42.0221 60.301 42.272 59.3088 42.5219C58.4819 42.272 57.5724 42.0221 56.7455 41.8554C53.8515 41.0223 51.619 39.3561 51.5363 36.107C51.5363 35.2739 51.619 34.4408 51.8671 33.691C51.9497 33.3577 52.5285 31.6915 52.1151 32.7746C53.19 30.2753 49.5519 28.1925 48.4769 30.6918C46.9059 34.2742 46.8232 38.7729 49.3038 42.0221C50.3787 43.4383 51.7017 44.3548 53.19 44.9379C49.8826 46.6875 47.3193 49.3534 47.3193 53.9355C47.3193 58.4342 49.8826 61.1002 53.19 62.933C51.7844 63.5162 50.3787 64.3493 49.3038 65.7656C46.8232 69.0147 46.9059 73.5135 48.4769 77.1791C49.5519 79.6785 53.1073 77.5124 52.1151 75.0964C52.5285 76.0961 51.8671 74.4299 51.7844 74.0966C51.619 73.2635 51.4536 72.5137 51.4536 71.6806C51.619 68.5148 53.8515 66.7653 56.7455 65.9322C57.5724 65.6823 58.4819 65.4323 59.3915 65.1824C60.301 65.5157 61.2105 65.6823 62.0374 65.9322C64.9314 66.7653 67.1639 68.4315 67.2466 71.6806C67.2466 72.5137 67.1639 73.3469 66.9159 74.0966C66.9159 74.4299 66.3371 76.0961 66.7505 75.0964C65.6756 77.5957 69.3138 79.6785 70.3887 77.2625C71.9597 73.5968 72.0424 69.098 69.5618 65.8489C68.4042 64.3493 67.0812 63.5162 65.5929 62.8497C68.9003 61.1002 71.4636 58.4343 71.4636 53.8522ZM59.3915 61.0169C55.836 60.0172 51.5363 58.1843 51.5363 53.8522C51.5363 49.6033 55.836 47.7705 59.3915 46.7708C62.947 47.7705 67.3293 49.6033 67.3293 53.8522C67.2466 58.1843 62.947 60.0172 59.3915 61.0169Z" fill="white"/>
<path d="M8.95307 107.921H82.0473C83.5357 107.921 84.6933 106.754 84.6933 105.255V16.6956C84.6933 15.196 83.5357 14.0297 82.0473 14.0297H27.3093C26.8132 14.0297 26.3171 14.1963 25.9037 14.4462C25.5729 14.6129 25.1595 14.7795 24.9114 15.0294L7.29936 32.7746C7.0513 33.0245 6.88593 33.4411 6.72056 33.7743C6.4725 34.1909 6.30713 34.6907 6.30713 35.1906V105.255C6.30713 106.754 7.46473 107.921 8.95307 107.921ZM24.7461 21.1944V32.5247H13.4181L24.7461 21.1944ZM10.5241 36.7735H26.5652C27.8054 36.7735 28.8804 35.6905 28.8804 34.4408V18.2785H80.4763V103.755H10.5241V36.7735Z" fill="white"/>
</svg>
