<svg width="21" height="23" viewBox="0 0 21 23" fill="none" xmlns="http://www.w3.org/2000/svg">
<path d="M12.3643 14.8618L10.6335 16.1006L5.10963 8.25689L6.84043 7.01809C7.31207 6.68047 7.46611 6.04536 7.2039 5.52628L4.76952 0.719355C4.44673 0.0816308 3.63671 -0.119021 3.0569 0.295369C-0.211724 2.63427 -0.9802 7.20216 1.34081 10.4972L7.2939 18.949C9.6149 22.2441 14.1453 23.0188 17.4139 20.679C17.9937 20.2646 18.0725 19.428 17.5818 18.9098L13.8813 15.0075C13.4815 14.587 12.8359 14.5242 12.3643 14.8618Z" fill="white"/>
<path d="M19.9488 12.5971C19.9038 12.5971 19.8579 12.5927 19.8129 12.5822C19.4624 12.5072 19.2391 12.1591 19.3136 11.8058C19.8034 9.49218 19.3707 7.12448 18.0942 5.1389C16.8177 3.15332 14.8507 1.78801 12.5556 1.29423C12.2051 1.21921 11.9819 0.87112 12.0563 0.517797C12.1307 0.164475 12.476 -0.0606039 12.8265 0.0144226C18.2647 1.18431 21.7445 6.59668 20.5831 12.0788C20.5182 12.3868 20.2491 12.5971 19.9488 12.5971Z" fill="white"/>
<path d="M16.7502 11.5406C16.7052 11.5406 16.6594 11.5362 16.6144 11.5257C16.2639 11.4507 16.0406 11.1026 16.115 10.7493C16.6473 8.23416 15.0515 5.75044 12.5556 5.21391C12.2051 5.13801 11.9819 4.7908 12.0563 4.43748C12.1307 4.08415 12.476 3.85907 12.8265 3.9341C16.0216 4.62155 18.0665 7.80145 17.3837 11.0224C17.3188 11.3303 17.0497 11.5406 16.7502 11.5406Z" fill="white"/>
</svg>
