<svg width="44" height="33" viewBox="0 0 44 33" fill="none" xmlns="http://www.w3.org/2000/svg">
<g clip-path="url(#clip0_12_384)">
<path d="M33.8 18.4499H2.13C0.95 18.4499 0 17.4999 0 16.3199C0 15.1399 0.95 14.1899 2.13 14.1899H33.8C34.98 14.1899 35.93 15.1399 35.93 16.3199C35.93 17.4999 34.98 18.4499 33.8 18.4499Z" fill="white"/>
<path d="M40.9 4.26H2.13C0.95 4.26 0 3.3 0 2.13C0 0.95 0.95 0 2.13 0H40.9C42.08 0 43.03 0.95 43.03 2.13C43.03 3.3 42.08 4.26 40.9 4.26Z" fill="white"/>
<path d="M26.71 32.64H2.13C0.95 32.64 0 31.69 0 30.51C0 29.33 0.95 28.38 2.13 28.38H26.71C27.88 28.38 28.84 29.33 28.84 30.51C28.84 31.69 27.88 32.64 26.71 32.64Z" fill="white"/>
</g>
<defs>
<clipPath id="clip0_12_384">
<rect width="43.03" height="32.64" fill="white"/>
</clipPath>
</defs>
</svg>
